<svg xmlns="http://www.w3.org/2000/svg" xmlns:xlink="http://www.w3.org/1999/xlink" version="1.1" style="enable-background:new 0 0 24 24;" xml:space="preserve" width="28.62427740566409" height="26.312138702832073"><rect id="backgroundrect" width="100%" height="100%" x="0" y="0" fill="none" stroke="none" class="" style=""/>
















<g class="currentLayer" style=""><title>Layer 1</title><g id="svg_1" class="" fill="#eb1a1a" fill-opacity="1">
	<path style="" d="M14.312138736248016,1.1560693979263306 C7.685138736248017,1.1560693979263306 2.3121387362480164,6.529069397926331 2.3121387362480164,13.15606939792633 s5.373,12 12,12 s12,-5.373 12,-12 S20.939138736248015,1.1560693979263306 14.312138736248016,1.1560693979263306 zM14.312138736248016,20.81606939792633 c-0.9380000000000003,0 -1.58,-0.7230000000000003 -1.58,-1.6600000000000001 c0,-0.9640000000000003 0.6690000000000006,-1.6600000000000001 1.58,-1.6600000000000001 c0.9630000000000003,0 1.58,0.6960000000000006 1.58,1.6600000000000001 C15.892138736248016,20.09406939792633 15.275138736248017,20.81606939792633 14.312138736248016,20.81606939792633 zM14.934138736248016,14.47706939792633 c-0.23900000000000007,0.8150000000000003 -0.992,0.8290000000000003 -1.243,0 c-0.28900000000000015,-0.9560000000000003 -1.316,-4.585 -1.316,-6.942 c0,-3.11 3.891,-3.125 3.891,0 C16.265138736248016,9.90606939792633 15.183138736248017,13.629069397926331 14.934138736248016,14.47706939792633 z" id="svg_2" fill="#eb1a1a" fill-opacity="1"/>
</g><g id="svg_3">
</g><g id="svg_4">
</g><g id="svg_5">
</g><g id="svg_6">
</g><g id="svg_7">
</g><g id="svg_8">
</g><g id="svg_9">
</g><g id="svg_10">
</g><g id="svg_11">
</g><g id="svg_12">
</g><g id="svg_13">
</g><g id="svg_14">
</g><g id="svg_15">
</g><g id="svg_16">
</g><g id="svg_17">
</g></g></svg>