<svg xmlns="http://www.w3.org/2000/svg" height="712pt" version="1.1" viewBox="-6 0 712 712.5" width="712pt">
<g id="surface1">
<path d="M 281.664062 656.914062 C 283.355469 660.351562 286.867188 662.523438 290.699219 662.5 L 362.75 662.5 C 366.585938 662.53125 370.101562 660.355469 371.804688 656.914062 C 377.710938 644.980469 389.890625 637.453125 403.199219 637.5 L 562.75 637.5 L 562.75 412.5 L 392.285156 412.5 C 369.085938 412.480469 350.28125 393.675781 350.25 370.476562 L 350.25 312.5 L 100.25 312.5 C 93.34375 312.5 87.75 318.09375 87.75 325 L 87.75 637.5 L 250.25 637.5 C 263.570312 637.453125 275.75 644.980469 281.664062 656.914062 Z M 137.75 550 L 137.75 450 C 137.75 443.09375 143.34375 437.5 150.25 437.5 L 500.25 437.5 C 507.15625 437.5 512.75 443.09375 512.75 450 L 512.75 550 C 512.75 556.90625 507.15625 562.5 500.25 562.5 L 150.25 562.5 C 143.34375 562.5 137.75 556.90625 137.75 550 Z M 137.75 550 " style=" stroke:none;fill-rule:nonzero;fill:rgb(0%,0%,0%);fill-opacity:1;" />
<path d="M 37.75 300 L 37.75 637.5 L 62.75 637.5 L 62.75 325 C 62.75 304.292969 79.542969 287.5 100.25 287.5 L 350.25 287.5 L 350.25 262.5 L 75.25 262.5 C 54.542969 262.5 37.75 279.292969 37.75 300 Z M 37.75 300 " style=" stroke:none;fill-rule:nonzero;fill:rgb(0%,0%,0%);fill-opacity:1;" />
<path d="M 162.75 537.5 L 487.75 537.5 L 487.75 462.5 L 162.75 462.5 Z M 337.75 487.5 L 362.75 487.5 L 362.75 512.5 L 337.75 512.5 Z M 287.75 487.5 L 312.75 487.5 L 312.75 512.5 L 287.75 512.5 Z M 237.75 487.5 L 262.75 487.5 L 262.75 512.5 L 237.75 512.5 Z M 187.75 487.5 L 212.75 487.5 L 212.75 512.5 L 187.75 512.5 Z M 187.75 487.5 " style=" stroke:none;fill-rule:nonzero;fill:rgb(0%,0%,0%);fill-opacity:1;" />
<path d="M 587.75 412.5 L 612.75 412.5 L 612.75 637.5 L 587.75 637.5 Z M 587.75 412.5 " style=" stroke:none;fill-rule:nonzero;fill:rgb(0%,0%,0%);fill-opacity:1;" />
<path d="M 25.25 712.5 L 625.25 712.5 C 639.058594 712.5 650.25 701.308594 650.25 687.5 L 650.25 662.5 L 403.199219 662.5 C 399.371094 662.476562 395.855469 664.640625 394.164062 668.070312 C 388.257812 680.007812 376.070312 687.546875 362.75 687.5 L 290.699219 687.5 C 277.390625 687.546875 265.203125 680.007812 259.304688 668.070312 C 257.59375 664.644531 254.082031 662.480469 250.25 662.5 L 0.25 662.5 L 0.25 687.5 C 0.25 701.308594 11.441406 712.5 25.25 712.5 Z M 25.25 712.5 " style=" stroke:none;fill-rule:nonzero;fill:rgb(0%,0%,0%);fill-opacity:1;" />
<path d="M 550.25 287.5 C 550.25 294.40625 544.65625 300 537.75 300 C 530.84375 300 525.25 294.40625 525.25 287.5 C 525.25 280.59375 530.84375 275 537.75 275 C 544.65625 275 550.25 280.59375 550.25 287.5 Z M 550.25 287.5 " style=" stroke:none;fill-rule:nonzero;fill:rgb(0%,0%,0%);fill-opacity:1;" />
<path d="M 683.214844 200 L 392.285156 200 C 382.886719 200.003906 375.257812 207.621094 375.25 217.023438 L 375.25 370.476562 C 375.257812 379.878906 382.886719 387.496094 392.285156 387.5 L 683.214844 387.5 C 692.613281 387.496094 700.242188 379.878906 700.25 370.476562 L 700.25 217.023438 C 700.242188 207.621094 692.613281 200.003906 683.214844 200 Z M 550.25 322.699219 L 550.25 350 L 525.25 350 L 525.25 322.699219 C 508.03125 316.609375 497.703125 299.003906 500.789062 281.007812 C 503.875 263 519.488281 249.847656 537.75 249.847656 C 556.011719 249.847656 571.625 263 574.710938 281.007812 C 577.796875 299.003906 567.46875 316.609375 550.25 322.699219 Z M 550.25 322.699219 " style=" stroke:none;fill-rule:nonzero;fill:rgb(0%,0%,0%);fill-opacity:1;" />
<path d="M 200.25 187.5 L 225.25 187.5 L 225.25 212.5 L 200.25 212.5 Z M 200.25 187.5 " style=" stroke:none;fill-rule:nonzero;fill:rgb(0%,0%,0%);fill-opacity:1;" />
<path d="M 200.25 137.5 L 225.25 137.5 L 225.25 162.5 L 200.25 162.5 Z M 200.25 137.5 " style=" stroke:none;fill-rule:nonzero;fill:rgb(0%,0%,0%);fill-opacity:1;" />
<path d="M 200.25 87.5 L 225.25 87.5 L 225.25 112.5 L 200.25 112.5 Z M 200.25 87.5 " style=" stroke:none;fill-rule:nonzero;fill:rgb(0%,0%,0%);fill-opacity:1;" />
<path d="M 200.25 37.5 L 225.25 37.5 L 225.25 62.5 L 200.25 62.5 Z M 200.25 37.5 " style=" stroke:none;fill-rule:nonzero;fill:rgb(0%,0%,0%);fill-opacity:1;" />
<path d="M 250.25 37.5 L 275.25 37.5 L 275.25 62.5 L 250.25 62.5 Z M 250.25 37.5 " style=" stroke:none;fill-rule:nonzero;fill:rgb(0%,0%,0%);fill-opacity:1;" />
<path d="M 300.25 37.5 L 325.25 37.5 L 325.25 62.5 L 300.25 62.5 Z M 300.25 37.5 " style=" stroke:none;fill-rule:nonzero;fill:rgb(0%,0%,0%);fill-opacity:1;" />
<path d="M 350.25 37.5 L 375.25 37.5 L 375.25 62.5 L 350.25 62.5 Z M 350.25 37.5 " style=" stroke:none;fill-rule:nonzero;fill:rgb(0%,0%,0%);fill-opacity:1;" />
<path d="M 675.25 175 L 675.25 137.5 C 675.25 61.5625 613.6875 0 537.75 0 C 461.8125 0 400.25 61.5625 400.25 137.5 L 400.25 175 L 450.25 175 L 450.25 137.5 C 450.25 89.171875 489.421875 50 537.75 50 C 586.078125 50 625.25 89.171875 625.25 137.5 L 625.25 175 Z M 675.25 175 " style=" stroke:none;fill-rule:nonzero;fill:rgb(0%,0%,0%);fill-opacity:1;" />
</g>
</svg>